<?xml version="1.0" encoding="UTF-8"?>
<svg xmlns="http://www.w3.org/2000/svg" xmlns:xlink="http://www.w3.org/1999/xlink" width="40px" height="40px" viewBox="0 0 40 40" version="1.1">
<g id="surface1">
<path style=" stroke:none;fill-rule:evenodd;fill:#FFFFFF;fill-opacity:1;" d="M 35.832031 35.839844 C 34.582031 37.089844 32.554688 37.089844 31.300781 35.839844 L 19.972656 24.511719 L 8.644531 35.839844 C 7.394531 37.089844 5.367188 37.089844 4.113281 35.839844 C 2.863281 34.574219 2.863281 32.558594 4.113281 31.296875 L 15.441406 19.96875 L 4.113281 8.640625 C 2.863281 7.390625 2.863281 5.359375 4.113281 4.113281 C 5.367188 2.863281 7.394531 2.863281 8.644531 4.113281 L 19.972656 15.441406 L 31.300781 4.113281 C 32.554688 2.863281 34.582031 2.863281 35.832031 4.113281 C 37.085938 5.359375 37.085938 7.390625 35.832031 8.640625 L 24.503906 19.96875 L 35.832031 31.296875 C 37.085938 32.558594 37.085938 34.574219 35.832031 35.839844 Z M 29.035156 19.96875 L 38.101562 10.910156 C 40.601562 8.414062 40.601562 4.351562 38.101562 1.855469 C 35.597656 -0.65625 31.539062 -0.65625 29.035156 1.855469 L 19.972656 10.910156 L 10.910156 1.855469 C 8.410156 -0.65625 4.355469 -0.65625 1.847656 1.855469 C -0.652344 4.351562 -0.652344 8.414062 1.847656 10.910156 L 10.910156 19.96875 L 1.847656 29.039062 C -0.652344 31.535156 -0.652344 35.601562 1.847656 38.097656 C 4.355469 40.609375 8.410156 40.609375 10.910156 38.097656 L 19.972656 29.039062 L 29.035156 38.097656 C 31.539062 40.609375 35.597656 40.609375 38.101562 38.097656 C 40.601562 35.601562 40.601562 31.535156 38.101562 29.039062 Z M 29.035156 19.96875 "/>
</g>
</svg>
