<?xml version="1.0" encoding="UTF-8"?>
<svg xmlns="http://www.w3.org/2000/svg" xmlns:xlink="http://www.w3.org/1999/xlink" width="35px" height="35px" viewBox="0 0 35 35" version="1.1">
<g id="surface1">
<path style=" stroke:none;fill-rule:evenodd;fill:rgb(5.882353%,5.882353%,5.882353%);fill-opacity:1;" d="M 29.167969 1.457031 C 31.582031 1.457031 33.542969 3.417969 33.542969 5.832031 L 33.542969 29.167969 C 33.542969 31.582031 31.582031 33.542969 29.167969 33.542969 L 5.832031 33.542969 C 3.417969 33.542969 1.457031 31.582031 1.457031 29.167969 L 1.457031 5.832031 C 1.457031 3.417969 3.417969 1.457031 5.832031 1.457031 Z M 29.167969 4.375 C 29.972656 4.375 30.625 5.027344 30.625 5.832031 L 30.625 29.167969 C 30.625 29.972656 29.972656 30.625 29.167969 30.625 L 21.875 30.625 L 21.875 20.417969 L 24.902344 20.417969 C 25.53125 20.417969 26.085938 20.015625 26.285156 19.417969 L 26.933594 17.480469 C 27.167969 16.773438 26.640625 16.042969 25.894531 16.042969 L 21.875 16.042969 L 21.875 13.125 C 21.875 12.394531 22.605469 11.667969 23.332031 11.667969 L 26.25 11.667969 C 27.054688 11.667969 27.707031 11.011719 27.707031 10.207031 L 27.707031 9.207031 C 27.707031 8.738281 27.40625 8.3125 26.953125 8.195312 C 25.039062 7.691406 23.332031 7.691406 23.332031 7.691406 C 19.6875 7.691406 17.5 10.207031 17.5 12.394531 L 17.5 16.042969 L 14.582031 16.042969 C 13.777344 16.042969 13.125 16.695312 13.125 17.5 L 13.125 18.957031 C 13.125 19.761719 13.777344 20.417969 14.582031 20.417969 L 17.5 20.417969 L 17.5 30.625 L 5.832031 30.625 C 5.027344 30.625 4.375 29.972656 4.375 29.167969 L 4.375 5.832031 C 4.375 5.027344 5.027344 4.375 5.832031 4.375 Z M 29.167969 4.375 "/>
</g>
</svg>
