<?xml version="1.0" encoding="UTF-8"?>
<svg xmlns="http://www.w3.org/2000/svg" xmlns:xlink="http://www.w3.org/1999/xlink" width="50px" height="50px" viewBox="0 0 50 50" version="1.1">
<g id="surface1">
<path style=" stroke:none;fill-rule:evenodd;fill:rgb(80.784314%,7.45098%,7.058824%);fill-opacity:1;" d="M 19.835938 31.53125 L 19.835938 17.382812 L 33.34375 24.480469 Z M 49.5 14.929688 C 49.5 14.929688 49.011719 11.460938 47.511719 9.933594 C 45.609375 7.925781 43.480469 7.917969 42.503906 7.800781 C 35.507812 7.292969 25.011719 7.292969 25.011719 7.292969 L 24.988281 7.292969 C 24.988281 7.292969 14.492188 7.292969 7.496094 7.800781 C 6.519531 7.917969 4.390625 7.925781 2.484375 9.933594 C 0.988281 11.460938 0.5 14.929688 0.5 14.929688 C 0.5 14.929688 0 19.007812 0 23.082031 L 0 26.902344 C 0 30.976562 0.5 35.050781 0.5 35.050781 C 0.5 35.050781 0.988281 38.519531 2.484375 40.050781 C 4.390625 42.054688 6.886719 41.992188 8 42.203125 C 12 42.589844 25 42.707031 25 42.707031 C 25 42.707031 35.507812 42.691406 42.503906 42.183594 C 43.480469 42.066406 45.609375 42.054688 47.511719 40.050781 C 49.011719 38.519531 49.5 35.050781 49.5 35.050781 C 49.5 35.050781 50 30.976562 50 26.902344 L 50 23.082031 C 50 19.007812 49.5 14.929688 49.5 14.929688 Z M 49.5 14.929688 "/>
</g>
</svg>
