<?xml version="1.0" encoding="UTF-8"?> <svg xmlns="http://www.w3.org/2000/svg" width="45" height="45" viewBox="0 0 45 45" fill="none"> <g filter="url(#filter0_d)"> <path d="M32.995 20.1583C32.8188 14.6417 28.3596 10.1827 22.8432 10.0065C19.8415 9.91125 17.0333 11.0538 14.9579 13.1966C12.9627 15.2565 11.9143 17.9722 12.006 20.8436C12.1821 26.36 16.6413 30.8193 22.1577 30.9953C22.2725 30.999 22.3863 31.0007 22.5004 31.0007C25.3684 31.0007 28.047 29.8659 30.043 27.8052C32.0382 25.7454 33.0867 23.0296 32.995 20.1583ZM28.4547 26.2669C26.879 27.8937 24.7644 28.7896 22.5004 28.7896C22.4099 28.7896 22.3194 28.7881 22.2281 28.7853C17.8745 28.6463 14.3552 25.127 14.216 20.7732C14.1437 18.5055 14.9711 16.3611 16.5462 14.7351C18.1218 13.1082 20.2365 12.2124 22.5004 12.2124C22.5909 12.2124 22.6815 12.2138 22.7727 12.2166C27.1264 12.3557 30.6457 15.8749 30.7848 20.2287C30.8572 22.4964 30.0296 24.6408 28.4547 26.2669Z" fill="#EB16EF"></path> <path d="M25.9441 19.8903L21.2879 16.5517C20.7913 16.1956 20.0999 16.5506 20.0999 17.1618V23.839C20.0999 24.4502 20.7913 24.8052 21.2879 24.449L25.944 21.1103C26.3618 20.8109 26.3618 20.1898 25.9441 19.8903Z" fill="#EB16EF"></path> </g> <defs> <filter id="filter0_d" x="0.000488281" y="0.000976562" width="45" height="44.9998" filterUnits="userSpaceOnUse" color-interpolation-filters="sRGB"> <feFlood flood-opacity="0" result="BackgroundImageFix"></feFlood> <feColorMatrix in="SourceAlpha" type="matrix" values="0 0 0 0 0 0 0 0 0 0 0 0 0 0 0 0 0 0 127 0"></feColorMatrix> <feOffset dy="2"></feOffset> <feGaussianBlur stdDeviation="6"></feGaussianBlur> <feColorMatrix type="matrix" values="0 0 0 0 0.921569 0 0 0 0 0.0862745 0 0 0 0 0.937255 0 0 0 1 0"></feColorMatrix> <feBlend mode="normal" in2="BackgroundImageFix" result="effect1_dropShadow"></feBlend> <feBlend mode="normal" in="SourceGraphic" in2="effect1_dropShadow" result="shape"></feBlend> </filter> </defs> </svg> 