<?xml version="1.0" encoding="UTF-8"?>
<svg xmlns="http://www.w3.org/2000/svg" xmlns:xlink="http://www.w3.org/1999/xlink" width="35px" height="35px" viewBox="0 0 35 35" version="1.1">
<g id="surface1">
<path style=" stroke:none;fill-rule:evenodd;fill:#FFFFFF;fill-opacity:1;" d="M 33.703125 6.554688 C 34.167969 4.292969 31.949219 2.417969 29.796875 3.246094 L 3.417969 13.441406 C 1.011719 14.367188 0.90625 17.730469 3.246094 18.808594 L 8.988281 21.460938 L 11.722656 31.027344 C 11.863281 31.523438 12.257812 31.90625 12.757812 32.035156 C 13.257812 32.167969 13.789062 32.023438 14.15625 31.65625 L 18.367188 27.445312 L 24.261719 31.867188 C 25.976562 33.152344 28.441406 32.21875 28.871094 30.121094 Z M 4.46875 16.160156 L 30.847656 5.96875 L 26.011719 29.535156 L 19.105469 24.355469 C 18.523438 23.917969 17.710938 23.976562 17.199219 24.488281 L 15.394531 26.292969 L 15.9375 23.3125 L 26.550781 12.699219 C 27.070312 12.179688 27.125 11.363281 26.679688 10.78125 C 26.234375 10.199219 25.433594 10.039062 24.796875 10.398438 L 10.136719 18.777344 Z M 11.925781 21.117188 L 12.808594 24.210938 L 13.148438 22.34375 C 13.203125 22.050781 13.34375 21.78125 13.550781 21.574219 L 16.789062 18.335938 Z M 11.925781 21.117188 "/>
</g>
</svg>
