<?xml version="1.0" encoding="UTF-8"?>
<svg xmlns="http://www.w3.org/2000/svg" xmlns:xlink="http://www.w3.org/1999/xlink" width="35px" height="35px" viewBox="0 0 35 35" version="1.1">
<g id="surface1">
<path style=" stroke:none;fill-rule:evenodd;fill:rgb(5.882353%,5.882353%,5.882353%);fill-opacity:1;" d="M 28.851562 5.714844 C 29.359375 5.59375 29.710938 5.476562 30.003906 5.351562 C 30.410156 5.175781 30.746094 4.96875 31.28125 4.617188 C 31.726562 4.320312 32.300781 4.292969 32.773438 4.550781 C 33.246094 4.804688 33.542969 5.296875 33.542969 5.832031 C 33.542969 7.410156 33.34375 8.703125 32.890625 9.839844 C 32.507812 10.792969 31.96875 11.570312 31.328125 12.277344 C 31.054688 17.183594 29.636719 21.035156 27.464844 23.953125 C 25.214844 26.976562 22.222656 28.914062 19.066406 30 C 15.921875 31.082031 12.597656 31.320312 9.621094 30.957031 C 6.660156 30.59375 3.925781 29.613281 2.019531 28.128906 C 1.5 27.722656 1.316406 27.019531 1.574219 26.410156 C 1.832031 25.800781 2.46875 25.441406 3.121094 25.535156 C 5 25.804688 6.804688 25.375 8.289062 24.765625 C 7.996094 24.609375 7.71875 24.4375 7.464844 24.257812 C 6.113281 23.324219 5.019531 22.050781 4.527344 21.070312 C 4.324219 20.664062 4.324219 20.183594 4.523438 19.777344 C 4.625 19.566406 4.777344 19.386719 4.960938 19.25 C 2.984375 17.617188 2.1875 15.363281 2.1875 13.855469 C 2.1875 13.40625 2.394531 12.980469 2.75 12.703125 C 2.898438 12.589844 3.066406 12.503906 3.242188 12.453125 C 3.09375 12.019531 2.980469 11.582031 2.890625 11.160156 C 2.503906 9.28125 2.539062 7.164062 2.960938 5.480469 C 3.105469 4.902344 3.585938 4.472656 4.171875 4.390625 C 4.761719 4.304688 5.339844 4.589844 5.636719 5.105469 C 7.210938 7.828125 10.109375 9.492188 12.804688 10.480469 C 14.074219 10.941406 15.25 11.238281 16.128906 11.417969 C 16.320312 9.640625 16.816406 8.171875 17.578125 7.007812 C 18.585938 5.46875 19.988281 4.558594 21.496094 4.152344 C 24.09375 3.453125 26.980469 4.25 28.851562 5.714844 Z M 15.675781 14.304688 C 14.675781 14.101562 13.300781 13.765625 11.804688 13.21875 C 9.824219 12.496094 7.527344 11.367188 5.601562 9.617188 C 5.636719 9.941406 5.683594 10.257812 5.75 10.570312 C 6.070312 12.132812 6.671875 13.007812 7.214844 13.277344 C 7.878906 13.613281 8.1875 14.390625 7.929688 15.089844 C 7.582031 16.035156 6.660156 16.109375 5.828125 15.902344 C 6.5 16.910156 7.707031 17.914062 9.71875 18.25 C 10.414062 18.363281 10.925781 18.960938 10.9375 19.664062 C 10.949219 20.367188 10.457031 20.980469 9.765625 21.117188 L 8.496094 21.371094 C 8.691406 21.539062 8.898438 21.707031 9.125 21.859375 C 10.140625 22.5625 11.160156 22.867188 12.042969 22.648438 C 12.703125 22.484375 13.386719 22.796875 13.695312 23.402344 C 14.003906 24.007812 13.851562 24.746094 13.328125 25.183594 C 12.390625 25.964844 11.292969 26.589844 10.195312 27.113281 C 9.679688 27.355469 9.101562 27.597656 8.476562 27.808594 C 8.957031 27.914062 9.457031 27.996094 9.976562 28.0625 C 12.558594 28.378906 15.433594 28.164062 18.121094 27.242188 C 20.796875 26.320312 23.273438 24.703125 25.125 22.210938 C 26.976562 19.726562 28.265625 16.285156 28.4375 11.613281 C 28.453125 11.246094 28.605469 10.894531 28.863281 10.636719 C 29.519531 9.980469 30.0625 9.226562 30.328125 8.332031 C 29.863281 8.480469 29.335938 8.605469 28.710938 8.722656 C 28.238281 8.816406 27.746094 8.664062 27.40625 8.324219 C 26.292969 7.207031 24.085938 6.476562 22.253906 6.96875 C 21.390625 7.199219 20.609375 7.703125 20.019531 8.601562 C 19.417969 9.523438 18.957031 10.953125 18.957031 13.125 C 18.957031 13.539062 18.785156 13.929688 18.476562 14.207031 C 17.75 14.863281 16.527344 14.476562 15.675781 14.304688 Z M 15.675781 14.304688 "/>
</g>
</svg>
