<?xml version="1.0" encoding="UTF-8"?> <svg xmlns="http://www.w3.org/2000/svg" width="72" height="68" viewBox="0 0 72 68" fill="none"> <g filter="url(#filter0_d)"> <path d="M36 53.3296C35.3166 53.3296 34.6578 53.082 34.1444 52.6323C32.2053 50.9368 30.3358 49.3434 28.6864 47.9379L28.6779 47.9305C23.8421 43.8096 19.6662 40.2507 16.7607 36.745C13.5128 32.8258 12 29.1099 12 25.0504C12 21.1063 13.3524 17.4677 15.8079 14.8042C18.2926 12.1093 21.702 10.625 25.4092 10.625C28.1799 10.625 30.7174 11.501 32.9509 13.2284C34.0781 14.1003 35.0998 15.1675 36 16.4122C36.9005 15.1675 37.9218 14.1003 39.0494 13.2284C41.2829 11.501 43.8204 10.625 46.5911 10.625C50.2979 10.625 53.7077 12.1093 56.1924 14.8042C58.6479 17.4677 59.9999 21.1063 59.9999 25.0504C59.9999 29.1099 58.4875 32.8258 55.2395 36.7446C52.334 40.2507 48.1585 43.8092 43.3234 47.9298C41.6711 49.3375 39.7987 50.9335 37.8552 52.6331C37.3421 53.082 36.6829 53.3296 36 53.3296V53.3296ZM25.4092 13.4368C22.4967 13.4368 19.8212 14.5991 17.8747 16.71C15.8994 18.8527 14.8114 21.8146 14.8114 25.0504C14.8114 28.4646 16.0803 31.5181 18.9254 34.9509C21.6753 38.2692 25.7655 41.7548 30.5013 45.7908L30.5101 45.7981C32.1657 47.2091 34.0426 48.8087 35.9959 50.5167C37.961 48.8054 39.8408 47.2032 41.4997 45.79C46.2352 41.754 50.325 38.2692 53.0749 34.9509C55.9196 31.5181 57.1885 28.4646 57.1885 25.0504C57.1885 21.8146 56.1005 18.8527 54.1252 16.71C52.1791 14.5991 49.5032 13.4368 46.5911 13.4368C44.4576 13.4368 42.4987 14.115 40.7691 15.4524C39.2277 16.6448 38.154 18.1521 37.5245 19.2068C37.2008 19.7491 36.6309 20.0729 36 20.0729C35.369 20.0729 34.7992 19.7491 34.4754 19.2068C33.8463 18.1521 32.7725 16.6448 31.2308 15.4524C29.5012 14.115 27.5423 13.4368 25.4092 13.4368V13.4368Z" fill="#EB16EF"></path> </g> <defs> <filter id="filter0_d" x="0" y="0.625" width="71.9999" height="66.7046" filterUnits="userSpaceOnUse" color-interpolation-filters="sRGB"> <feFlood flood-opacity="0" result="BackgroundImageFix"></feFlood> <feColorMatrix in="SourceAlpha" type="matrix" values="0 0 0 0 0 0 0 0 0 0 0 0 0 0 0 0 0 0 127 0"></feColorMatrix> <feOffset dy="2"></feOffset> <feGaussianBlur stdDeviation="6"></feGaussianBlur> <feColorMatrix type="matrix" values="0 0 0 0 0.921569 0 0 0 0 0.0862745 0 0 0 0 0.937255 0 0 0 1 0"></feColorMatrix> <feBlend mode="normal" in2="BackgroundImageFix" result="effect1_dropShadow"></feBlend> <feBlend mode="normal" in="SourceGraphic" in2="effect1_dropShadow" result="shape"></feBlend> </filter> </defs> </svg> 