<?xml version="1.0" encoding="UTF-8"?> <svg xmlns="http://www.w3.org/2000/svg" width="86" height="86" viewBox="0 0 86 86" fill="none"> <g filter="url(#filter0_d)"> <path d="M42.8919 17.8784C43.5654 17.8784 44.1114 17.3323 44.1114 16.6588V11.2195C44.1114 10.546 43.5654 10 42.8919 10C42.2184 10 41.6724 10.546 41.6724 11.2195V16.6588C41.6725 17.3323 42.2185 17.8784 42.8919 17.8784Z" fill="#EB16EF"></path> </g> <g filter="url(#filter1_d)"> <path d="M72.702 51.8966L70.5476 49.7483C69.7812 48.9828 68.7598 48.5612 67.6714 48.5612C66.9755 48.5612 66.3074 48.7344 65.7154 49.0588L61.6556 45.0038L61.8534 44.8063C63.5004 43.1561 63.4997 40.4744 61.8532 38.8297C61.2648 38.2403 60.5306 37.8472 59.7303 37.6818C59.8405 37.3014 59.8985 36.903 59.8985 36.4953C59.8985 35.3625 59.4585 34.3002 58.6619 33.5069C58.0734 32.9175 57.3393 32.5244 56.539 32.359C56.6492 31.9786 56.7072 31.5803 56.7072 31.1725C56.7072 30.0395 56.2672 28.9774 55.4693 28.1829C54.8667 27.5811 54.126 27.2001 53.3482 27.038C53.7643 25.6034 53.4088 23.9893 52.2802 22.8588C51.3407 21.9234 50.066 21.5213 48.8375 21.6516L40.7926 20.1289C39.5657 19.8961 38.0335 19.7422 37.0663 20.6244C37.0053 20.6801 36.943 20.7441 36.8818 20.8155C35.3821 20.2689 33.6331 20.5944 32.4322 21.7939C31.6355 22.5896 31.1967 23.6514 31.1967 24.7836C31.1967 25.1914 31.2544 25.5897 31.3645 25.9702C30.565 26.1355 29.8318 26.5281 29.2453 27.1156C28.4471 27.9106 28.0069 28.9711 28.0061 30.102C28.0057 30.5108 28.0637 30.9104 28.1744 31.2919C27.3746 31.4568 26.6409 31.8487 26.0526 32.4362C25.2543 33.2336 24.8148 34.296 24.8148 35.4276C24.8148 36.2944 25.0735 37.1201 25.5531 37.8176C24.9476 38.0229 24.393 38.3645 23.9286 38.8284C22.2805 40.4744 22.2799 43.1562 23.9297 44.8089L24.1267 45.005L20.0664 49.0579C18.5575 48.3475 16.6983 48.6136 15.4531 49.8573L13.2974 52.0069C12.5307 52.7727 12.1085 53.7943 12.1084 54.8833C12.1084 55.9724 12.5307 56.994 13.2974 57.76L15.9878 60.447C16.4643 60.923 17.2365 60.9226 17.7124 60.4461C18.1884 59.9696 18.1879 59.1973 17.7114 58.7214L15.0211 56.0344C14.7157 55.7293 14.5475 55.3205 14.5475 54.8834C14.5475 54.4463 14.7157 54.0377 15.0203 53.7333L17.1762 51.5836C17.7148 51.0456 18.5392 50.9654 19.1653 51.3397C19.2093 51.4059 19.2603 51.4689 19.3187 51.5274C19.4232 51.6321 19.5425 51.7124 19.6691 51.7711L32.032 64.1158C32.0907 64.2438 32.1713 64.3643 32.2766 64.4696C32.379 64.5722 32.4959 64.6515 32.6199 64.7099C32.8813 65.0055 33.0258 65.3831 33.0258 65.7858C33.0258 66.223 32.8576 66.6316 32.5522 66.9367L30.3985 69.0878C29.7622 69.7214 28.7271 69.7212 28.0927 69.0897L25.4023 66.3991C24.9261 65.9229 24.154 65.9229 23.6777 66.3991C23.2014 66.8754 23.2014 67.6475 23.6777 68.1238L26.37 70.8163C27.1624 71.6055 28.2031 71.9999 29.2443 71.9999C30.2857 71.9999 31.3276 71.6048 32.121 70.815L34.2759 68.6625C35.0427 67.8966 35.465 66.875 35.465 65.7858C35.465 65.0085 35.2488 64.2662 34.8469 63.6261L39.4165 59.0621C39.4213 59.0571 39.4262 59.0521 39.4311 59.0472C39.9544 58.5063 41.4115 58.6075 42.8207 58.7053C43.8219 58.775 44.9381 58.8523 46.0287 58.7266L51.0328 63.7248C50.7086 64.3159 50.5356 64.9831 50.5356 65.6779C50.5356 66.7659 50.9578 67.7869 51.7246 68.5528L53.8797 70.7052C54.646 71.4707 55.6674 71.8923 56.7558 71.8923C57.8441 71.8923 58.8655 71.4708 59.6319 70.7052L72.7029 57.6501C73.4696 56.8843 73.8919 55.8628 73.8919 54.7737C73.8918 53.6847 73.4695 52.6631 72.702 51.8966V51.8966ZM40.3385 22.5253L45.6287 23.5266L42.4622 26.6919C41.9724 26.4565 41.3011 26.0174 40.5646 25.3129C39.5565 24.3485 38.8354 23.235 38.7697 22.5406C38.7696 22.5402 38.7696 22.5398 38.7696 22.5395C38.7696 22.5394 38.7695 22.5392 38.7695 22.5391C38.7648 22.4892 38.7636 22.4494 38.7642 22.419C38.9236 22.3802 39.3472 22.3373 40.3385 22.5253ZM34.1557 23.5196C34.7735 22.9024 35.7333 22.8312 36.4314 23.3039C36.827 24.9627 38.242 26.4661 38.8786 27.0752C39.3504 27.5266 40.8642 28.8801 42.3921 29.2521C42.5988 29.5484 42.7113 29.9016 42.7113 30.2743C42.7113 30.7545 42.5267 31.2034 42.1902 31.5395C41.8546 31.8757 41.405 32.0607 40.924 32.0607C40.4429 32.0607 39.9933 31.8757 39.6561 31.538L39.656 31.5378L39.6554 31.5372L34.1556 26.0473C33.8203 25.7125 33.6356 25.2636 33.6356 24.7836C33.6357 24.3035 33.8204 23.8546 34.1557 23.5196V23.5196ZM30.969 28.8413C31.3045 28.5053 31.7537 28.3201 32.2339 28.3201C32.7148 28.3201 33.1654 28.5056 33.5031 28.843L37.9318 33.2628C38.6291 33.9613 38.6291 35.0979 37.9342 35.7939C37.5968 36.13 37.1456 36.315 36.6638 36.315C36.182 36.315 35.7308 36.13 35.3949 35.7954L35.3947 35.7952L32.035 32.4362C32.0298 32.431 32.0241 32.4262 32.0188 32.4209L30.9677 31.3702C30.6304 31.0334 30.4448 30.5836 30.4451 30.1038C30.4456 29.6256 30.6307 29.1782 30.969 28.8413V28.8413ZM27.7762 34.1619C28.112 33.8266 28.5621 33.642 29.0438 33.642C29.5216 33.642 29.9678 33.824 30.3021 34.1535L33.6722 37.5219C34.0082 37.8566 34.1934 38.305 34.1934 38.7846C34.1934 39.264 34.0082 39.7124 33.6708 40.0484C33.3352 40.3836 32.8855 40.5683 32.4047 40.5683C31.9231 40.5683 31.472 40.3831 31.1359 40.0484L29.9141 38.8282C29.9139 38.8278 29.9135 38.8276 29.9133 38.8273L27.7764 36.6929C27.4395 36.3564 27.254 35.9069 27.254 35.4274C27.254 34.948 27.4395 34.4983 27.7762 34.1619V34.1619ZM25.6523 40.554C25.9895 40.2171 26.4402 40.0316 26.9213 40.0316C27.4023 40.0316 27.8529 40.217 28.19 40.5536L29.4134 41.7756C29.7496 42.1103 29.9346 42.5587 29.9346 43.0382C29.9346 43.5178 29.7495 43.966 29.4109 44.3034C29.0753 44.6395 28.6257 44.8246 28.1447 44.8246C27.6636 44.8246 27.214 44.6396 26.876 44.301L26.7228 44.1484C26.7208 44.1464 26.7192 44.1442 26.7173 44.1422C26.715 44.1401 26.7125 44.1381 26.7102 44.1359L25.6535 43.0833C24.9561 42.3844 24.9555 41.2499 25.6523 40.554ZM50.5048 54.4141C50.0288 53.9375 49.2566 53.9371 48.7802 54.413L47.6952 55.4967C46.6642 56.5277 44.7961 56.3979 42.9895 56.2726C41.0277 56.1362 38.999 55.9955 37.6862 57.3433L33.1942 61.8298L21.9612 50.6132L25.9365 46.6451C26.5935 47.0479 27.3517 47.2638 28.145 47.2638C29.2783 47.2638 30.341 46.8245 31.1348 46.0292C31.9339 45.2334 32.374 44.1713 32.374 43.0384C32.374 43.0278 32.3733 43.0174 32.3733 43.0069C32.3839 43.007 32.3944 43.0076 32.4049 43.0076C33.5367 43.0076 34.5985 42.5696 35.3934 41.7757C36.1925 40.9799 36.6327 39.9176 36.6327 38.7848C36.6327 38.7743 36.6319 38.7639 36.6319 38.7533C36.6426 38.7533 36.6533 38.7541 36.664 38.7541C37.7954 38.7541 38.8579 38.3165 39.6581 37.5196C40.4888 36.6876 40.8997 35.5922 40.8918 34.4991C40.9027 34.4992 40.9136 34.4998 40.9245 34.4998C42.0578 34.4997 43.1204 34.0605 43.9154 33.264C44.712 32.4683 45.1509 31.4066 45.1509 30.2743C45.1509 29.4825 44.9356 28.7256 44.5342 28.0698L48.0184 24.5871C48.278 24.3285 48.5982 24.1663 48.9337 24.0993C48.9701 24.0954 49.0059 24.0896 49.0414 24.0826C49.5798 24.0083 50.1452 24.1745 50.5569 24.5845C51.2543 25.2831 51.2543 26.4197 50.5594 27.1157L49.4983 28.1725C49.4948 28.176 49.491 28.1792 49.4875 28.1827L48.2653 29.4028C47.7887 29.8787 47.7882 30.6509 48.2642 31.1274C48.7404 31.6041 49.5124 31.6044 49.9888 31.1285L51.0542 30.0646C51.0545 30.0644 51.0547 30.0641 51.0549 30.0639L51.216 29.9034C51.9153 29.2105 53.0483 29.212 53.7469 29.9096C54.083 30.2443 54.2682 30.6927 54.2682 31.1723C54.2682 31.6517 54.083 32.1001 53.7442 32.4374L52.677 33.5068C52.6769 33.5069 52.6767 33.5071 52.6766 33.5073L51.4545 34.7244C50.9773 35.1997 50.9757 35.9719 51.451 36.449C51.9263 36.9263 52.6984 36.9277 53.1757 36.4525L54.4033 35.2299C54.7389 34.8937 55.1885 34.7087 55.6695 34.7087C56.1506 34.7087 56.6003 34.8937 56.9383 35.2323C57.2744 35.5671 57.4595 36.0155 57.4595 36.495C57.4595 36.9745 57.2744 37.4229 56.9363 37.7595L54.8087 39.888C54.3326 40.3644 54.3327 41.1365 54.809 41.6126C55.0472 41.8507 55.3591 41.9696 55.6712 41.9696C55.9833 41.9696 56.2955 41.8504 56.5336 41.6122L57.5763 40.5691C57.5823 40.5634 57.5887 40.5585 57.5946 40.5525C57.9302 40.2164 58.3798 40.0314 58.8608 40.0314C59.3419 40.0314 59.7915 40.2164 60.1283 40.5537C60.8249 41.2497 60.8243 42.3843 60.1283 43.0816L59.0681 44.1405C59.0677 44.1409 59.0672 44.1413 59.0669 44.1416C59.0665 44.142 59.0661 44.1425 59.0658 44.1428L57.3831 45.8235C56.9066 46.2995 56.9061 47.0717 57.382 47.5482C57.6202 47.7867 57.9326 47.906 58.2449 47.906C58.5567 47.906 58.8686 47.787 59.1067 47.5493L59.9298 46.7272L63.8747 50.6675L52.6426 61.8859L48.6182 57.8663C48.8987 57.6858 49.1672 57.4737 49.4192 57.2217L50.5036 56.1386C50.9803 55.6629 50.9808 54.8906 50.5048 54.4141V54.4141ZM70.9791 55.9244L57.9081 68.9795C57.6024 69.2849 57.1931 69.4531 56.7557 69.4531C56.3183 69.4531 55.909 69.2849 55.6031 68.9794L53.448 66.827C53.1426 66.5221 52.9744 66.114 52.9744 65.6779C52.9744 65.242 53.1426 64.8339 53.448 64.5289L66.519 51.4737C66.8249 51.1682 67.234 51 67.6715 51C68.1089 51 68.5182 51.1682 68.8248 51.4745L70.9792 53.6228C71.2846 53.9278 71.4528 54.3364 71.4528 54.7735C71.4527 55.2108 71.2845 55.6195 70.9791 55.9244V55.9244Z" fill="#EB16EF"></path> </g> <g filter="url(#filter2_d)"> <path d="M26.6982 16.8499C26.9363 17.0875 27.2479 17.2062 27.5596 17.2062C27.8721 17.2062 28.1846 17.0868 28.4228 16.8481C28.8986 16.3714 28.8979 15.5993 28.4211 15.1235L23.9772 10.6884C23.5006 10.2126 22.7284 10.2133 22.2526 10.6901C21.7768 11.1669 21.7775 11.939 22.2543 12.4147L26.6982 16.8499Z" fill="#EB16EF"></path> </g> <g filter="url(#filter3_d)"> <path d="M58.2241 17.2061C58.536 17.2061 58.8479 17.0872 59.086 16.8495L63.5265 12.4143C64.003 11.9384 64.0035 11.1662 63.5275 10.6897C63.0516 10.2132 62.2795 10.2127 61.8028 10.6887L57.3623 15.1239C56.8858 15.5998 56.8853 16.372 57.3613 16.8485C57.5995 17.087 57.9118 17.2061 58.2241 17.2061Z" fill="#EB16EF"></path> </g> <defs> <filter id="filter0_d" x="29.6724" y="0" width="26.4391" height="31.8784" filterUnits="userSpaceOnUse" color-interpolation-filters="sRGB"> <feFlood flood-opacity="0" result="BackgroundImageFix"></feFlood> <feColorMatrix in="SourceAlpha" type="matrix" values="0 0 0 0 0 0 0 0 0 0 0 0 0 0 0 0 0 0 127 0"></feColorMatrix> <feOffset dy="2"></feOffset> <feGaussianBlur stdDeviation="6"></feGaussianBlur> <feColorMatrix type="matrix" values="0 0 0 0 0.921569 0 0 0 0 0.0862745 0 0 0 0 0.937255 0 0 0 1 0"></feColorMatrix> <feBlend mode="normal" in2="BackgroundImageFix" result="effect1_dropShadow"></feBlend> <feBlend mode="normal" in="SourceGraphic" in2="effect1_dropShadow" result="shape"></feBlend> </filter> <filter id="filter1_d" x="0.108398" y="9.94824" width="85.7835" height="76.0516" filterUnits="userSpaceOnUse" color-interpolation-filters="sRGB"> <feFlood flood-opacity="0" result="BackgroundImageFix"></feFlood> <feColorMatrix in="SourceAlpha" type="matrix" values="0 0 0 0 0 0 0 0 0 0 0 0 0 0 0 0 0 0 127 0"></feColorMatrix> <feOffset dy="2"></feOffset> <feGaussianBlur stdDeviation="6"></feGaussianBlur> <feColorMatrix type="matrix" values="0 0 0 0 0.921569 0 0 0 0 0.0862745 0 0 0 0 0.937255 0 0 0 1 0"></feColorMatrix> <feBlend mode="normal" in2="BackgroundImageFix" result="effect1_dropShadow"></feBlend> <feBlend mode="normal" in="SourceGraphic" in2="effect1_dropShadow" result="shape"></feBlend> </filter> <filter id="filter2_d" x="9.89624" y="0.332031" width="30.8829" height="30.8741" filterUnits="userSpaceOnUse" color-interpolation-filters="sRGB"> <feFlood flood-opacity="0" result="BackgroundImageFix"></feFlood> <feColorMatrix in="SourceAlpha" type="matrix" values="0 0 0 0 0 0 0 0 0 0 0 0 0 0 0 0 0 0 127 0"></feColorMatrix> <feOffset dy="2"></feOffset> <feGaussianBlur stdDeviation="6"></feGaussianBlur> <feColorMatrix type="matrix" values="0 0 0 0 0.921569 0 0 0 0 0.0862745 0 0 0 0 0.937255 0 0 0 1 0"></feColorMatrix> <feBlend mode="normal" in2="BackgroundImageFix" result="effect1_dropShadow"></feBlend> <feBlend mode="normal" in="SourceGraphic" in2="effect1_dropShadow" result="shape"></feBlend> </filter> <filter id="filter3_d" x="45.0046" y="0.332031" width="30.8795" height="30.8741" filterUnits="userSpaceOnUse" color-interpolation-filters="sRGB"> <feFlood flood-opacity="0" result="BackgroundImageFix"></feFlood> <feColorMatrix in="SourceAlpha" type="matrix" values="0 0 0 0 0 0 0 0 0 0 0 0 0 0 0 0 0 0 127 0"></feColorMatrix> <feOffset dy="2"></feOffset> <feGaussianBlur stdDeviation="6"></feGaussianBlur> <feColorMatrix type="matrix" values="0 0 0 0 0.921569 0 0 0 0 0.0862745 0 0 0 0 0.937255 0 0 0 1 0"></feColorMatrix> <feBlend mode="normal" in2="BackgroundImageFix" result="effect1_dropShadow"></feBlend> <feBlend mode="normal" in="SourceGraphic" in2="effect1_dropShadow" result="shape"></feBlend> </filter> </defs> </svg> 