<?xml version="1.0" encoding="UTF-8"?> <svg xmlns="http://www.w3.org/2000/svg" width="86" height="80" viewBox="0 0 86 80" fill="none"> <g filter="url(#filter0_d)"> <path d="M72.9986 25.4899L43.8135 10.873C43.3014 10.6165 42.6984 10.6165 42.1865 10.873L13.0013 25.4899C11.6672 26.1581 11.6653 28.0689 13.0013 28.738L23.0184 33.7548V47.6393C23.0184 47.9671 23.1071 48.2887 23.2751 48.5702C26.7706 54.4266 36.121 56.303 43.0006 56.303C45.2467 56.303 47.4939 56.1175 49.6337 55.7477C49.803 55.9605 49.9876 56.1604 50.1862 56.3457L47.3893 62.7784C46.8684 63.9759 47.7475 65.3191 49.0551 65.3191H58.7431C60.049 65.3191 60.9306 63.9776 60.409 62.7784L57.6119 56.3455C58.7722 55.2634 59.4206 53.7283 59.3417 52.096C60.8017 51.0706 61.9387 49.8871 62.7247 48.5701C63.1817 47.8047 62.8918 48.4518 62.9814 33.7548L72.9985 28.738C74.3329 28.0698 74.3347 26.1589 72.9986 25.4899V25.4899ZM26.6515 47.1019V35.5743L42.1865 43.3546C42.6983 43.611 43.3014 43.6111 43.8135 43.3546L52.2036 39.1527V47.1841C50.0567 47.8887 48.495 49.8927 48.452 52.262C39.4339 53.6724 29.6966 51.397 26.6515 47.1019V47.1019ZM53.899 50.5455C54.9007 50.5455 55.7155 51.3604 55.7155 52.3619C55.7155 53.3635 54.9007 54.1783 53.899 54.1783C52.8973 54.1783 52.0825 53.3635 52.0825 52.3619C52.0825 51.3604 52.8973 50.5455 53.899 50.5455ZM55.9725 61.6861H51.8255L53.5168 57.7962C53.8013 57.8161 53.9967 57.8161 54.2812 57.7962L55.9725 61.6861ZM59.3485 47.1029C58.9651 47.6465 58.4733 48.1624 57.8811 48.6474C57.3182 48.0444 56.6207 47.5693 55.8366 47.2699V37.3332L59.3486 35.5743V47.1029H59.3485ZM54.03 34.175L42.0782 27.4102C41.2055 26.9161 40.097 27.2231 39.6027 28.0962C39.1085 28.9692 39.4156 30.0775 40.2887 30.5717L50.1171 36.1348L43 39.699L17.8711 27.1139L43 14.5286L68.1289 27.1139L54.03 34.175Z" fill="#EB16EF"></path> </g> <defs> <filter id="filter0_d" x="0" y="0.680664" width="86" height="78.6384" filterUnits="userSpaceOnUse" color-interpolation-filters="sRGB"> <feFlood flood-opacity="0" result="BackgroundImageFix"></feFlood> <feColorMatrix in="SourceAlpha" type="matrix" values="0 0 0 0 0 0 0 0 0 0 0 0 0 0 0 0 0 0 127 0"></feColorMatrix> <feOffset dy="2"></feOffset> <feGaussianBlur stdDeviation="6"></feGaussianBlur> <feColorMatrix type="matrix" values="0 0 0 0 0.921569 0 0 0 0 0.0862745 0 0 0 0 0.937255 0 0 0 1 0"></feColorMatrix> <feBlend mode="normal" in2="BackgroundImageFix" result="effect1_dropShadow"></feBlend> <feBlend mode="normal" in="SourceGraphic" in2="effect1_dropShadow" result="shape"></feBlend> </filter> </defs> </svg> 