<?xml version="1.0" encoding="UTF-8"?> <svg xmlns="http://www.w3.org/2000/svg" width="66" height="76" viewBox="0 0 66 76" fill="none"> <g filter="url(#filter0_d)"> <path d="M52.7077 35.692C51.4659 31.2385 46.053 24.2468 46.7251 11.9973C46.7416 11.6974 46.6338 11.4039 46.4272 11.1855C46.2207 10.9673 45.9334 10.8438 45.633 10.8438H20.3673C20.0669 10.8438 19.7795 10.9673 19.573 11.1855C19.3665 11.4038 19.2588 11.6973 19.2752 11.9973C19.9442 24.1903 14.5475 31.2537 13.2847 35.6828C11.0015 43.6683 14.7262 53.9823 19.945 60.7315C20.1522 60.9994 20.4717 61.1562 20.8103 61.1562H45.1911C45.5296 61.1562 45.8491 60.9994 46.0562 60.7317C51.0235 54.3097 54.9136 43.5733 52.7077 35.692ZM18.6109 28.8002C20.6617 23.606 21.6336 18.3067 21.505 13.0314H44.495C44.3666 18.3047 45.3382 23.6028 47.3882 28.7977C47.475 29.0177 47.566 29.2396 47.6602 29.4641C43.1601 31.5959 38.1143 32.7188 33.0001 32.7188C27.886 32.7188 22.84 31.5959 18.3398 29.4641C18.4329 29.2418 18.5236 29.021 18.6109 28.8002ZM31.9064 58.9688H21.3525C15.7188 51.4376 14.0376 42.8915 15.115 37.4202C21.038 39.6942 26.6495 44.5937 31.9064 48.5752V58.9688ZM15.7059 35.3047C16.0745 34.2854 16.5334 33.3362 17.0463 32.2774C17.1759 32.01 17.3077 31.7374 17.4408 31.4583C22.2231 33.7167 27.5774 34.9062 33.0001 34.9062C38.4227 34.9062 43.777 33.7167 48.5592 31.4584C48.6918 31.7367 48.8231 32.0083 48.9522 32.2747C49.4657 33.3351 49.9249 34.2858 50.2896 35.3062C44.0378 37.6594 38.1465 42.7438 33.0001 46.6603C27.8317 42.7274 21.9593 37.6573 15.7059 35.3047ZM44.647 58.9688H34.0939V48.5752C39.3881 44.5648 44.9649 39.6982 50.8677 37.4268C52.1683 44.339 48.777 53.3872 44.647 58.9688Z" fill="#EB16EF"></path> </g> <defs> <filter id="filter0_d" x="0.599121" y="0.84375" width="64.7409" height="74.3125" filterUnits="userSpaceOnUse" color-interpolation-filters="sRGB"> <feFlood flood-opacity="0" result="BackgroundImageFix"></feFlood> <feColorMatrix in="SourceAlpha" type="matrix" values="0 0 0 0 0 0 0 0 0 0 0 0 0 0 0 0 0 0 127 0"></feColorMatrix> <feOffset dy="2"></feOffset> <feGaussianBlur stdDeviation="6"></feGaussianBlur> <feColorMatrix type="matrix" values="0 0 0 0 0.921569 0 0 0 0 0.0862745 0 0 0 0 0.937255 0 0 0 1 0"></feColorMatrix> <feBlend mode="normal" in2="BackgroundImageFix" result="effect1_dropShadow"></feBlend> <feBlend mode="normal" in="SourceGraphic" in2="effect1_dropShadow" result="shape"></feBlend> </filter> </defs> </svg> 