<?xml version="1.0" encoding="UTF-8"?> <svg xmlns="http://www.w3.org/2000/svg" width="65" height="81" viewBox="0 0 65 81" fill="none"> <g filter="url(#filter0_d)"> <path d="M32.5 10C21.4505 10 12.4609 18.9895 12.4609 30.0391C12.4609 33.7723 13.4951 37.4157 15.4522 40.5765L31.3593 66.2106C31.664 66.7016 32.2009 67 32.7782 67C32.7827 67 32.787 67 32.7915 67C33.3738 66.9954 33.9118 66.6878 34.2109 66.1882L49.7126 40.3057C51.5617 37.2117 52.5391 33.6616 52.5391 30.0391C52.5391 18.9895 43.5495 10 32.5 10ZM46.8464 38.5911L32.7529 62.1223L18.2909 38.8168C16.6618 36.1859 15.7785 33.1507 15.7785 30.0391C15.7785 20.8311 23.2921 13.3176 32.5 13.3176C41.7079 13.3176 49.2104 20.8311 49.2104 30.0391C49.2104 33.0584 48.3853 36.016 46.8464 38.5911Z" fill="#EB16EF"></path> </g> <g filter="url(#filter1_d)"> <path d="M32.5 20.0195C26.9752 20.0195 22.4805 24.5143 22.4805 30.0391C22.4805 35.5285 26.9021 40.0586 32.5 40.0586C38.1669 40.0586 42.5195 35.4682 42.5195 30.0391C42.5195 24.5143 38.0248 20.0195 32.5 20.0195ZM32.5 36.741C28.7976 36.741 25.798 33.7315 25.798 30.0391C25.798 26.3559 28.8168 23.3371 32.5 23.3371C36.1832 23.3371 39.1908 26.3559 39.1908 30.0391C39.1908 33.6776 36.2611 36.741 32.5 36.741Z" fill="#EB16EF"></path> </g> <defs> <filter id="filter0_d" x="0.460938" y="0" width="64.0781" height="81" filterUnits="userSpaceOnUse" color-interpolation-filters="sRGB"> <feFlood flood-opacity="0" result="BackgroundImageFix"></feFlood> <feColorMatrix in="SourceAlpha" type="matrix" values="0 0 0 0 0 0 0 0 0 0 0 0 0 0 0 0 0 0 127 0"></feColorMatrix> <feOffset dy="2"></feOffset> <feGaussianBlur stdDeviation="6"></feGaussianBlur> <feColorMatrix type="matrix" values="0 0 0 0 0.921569 0 0 0 0 0.0862745 0 0 0 0 0.937255 0 0 0 1 0"></feColorMatrix> <feBlend mode="normal" in2="BackgroundImageFix" result="effect1_dropShadow"></feBlend> <feBlend mode="normal" in="SourceGraphic" in2="effect1_dropShadow" result="shape"></feBlend> </filter> <filter id="filter1_d" x="10.4805" y="10.0195" width="44.0391" height="44.0391" filterUnits="userSpaceOnUse" color-interpolation-filters="sRGB"> <feFlood flood-opacity="0" result="BackgroundImageFix"></feFlood> <feColorMatrix in="SourceAlpha" type="matrix" values="0 0 0 0 0 0 0 0 0 0 0 0 0 0 0 0 0 0 127 0"></feColorMatrix> <feOffset dy="2"></feOffset> <feGaussianBlur stdDeviation="6"></feGaussianBlur> <feColorMatrix type="matrix" values="0 0 0 0 0.921569 0 0 0 0 0.0862745 0 0 0 0 0.937255 0 0 0 1 0"></feColorMatrix> <feBlend mode="normal" in2="BackgroundImageFix" result="effect1_dropShadow"></feBlend> <feBlend mode="normal" in="SourceGraphic" in2="effect1_dropShadow" result="shape"></feBlend> </filter> </defs> </svg> 