<?xml version="1.0" encoding="UTF-8"?> <svg xmlns="http://www.w3.org/2000/svg" width="84" height="56" viewBox="0 0 84 56" fill="none"> <g filter="url(#filter0_d)"> <path d="M66.6666 16.6666C65.7333 16.6666 64.8133 16.9332 64 17.4132V16.6666C64 12.24 61.76 10 57.3334 10H26.6666C22.24 10 20 12.24 20 16.6666V17.4132C19.1866 16.9332 18.2666 16.6799 17.3334 16.6666C14.3866 16.6666 12 19.0534 12 22V32.6666C12 35.6134 14.3866 38 17.3334 38H20V40.6666C20 41.4 20.6 42 21.3334 42C22.0667 42 22.6667 41.4 22.6667 40.6666V38H61.3334V40.6666C61.3334 41.4 61.9334 42 62.6668 42C63.4 42 64 41.4 64 40.6666V38H66.6534C69.6 38 72 35.6134 72 32.6666V22C72 19.0534 69.6134 16.6666 66.6666 16.6666ZM22.6666 16.6666C22.6666 13.72 23.7066 12.6666 26.6666 12.6666H57.3332C60.2799 12.6666 61.3332 13.72 61.3332 16.6666V26H22.6666V16.6666ZM69.3334 32.6666C69.3334 34.1466 68.12 35.3332 66.6534 35.3332H17.3334C15.8668 35.3332 14.6667 34.1332 14.6667 32.6666V22C14.6667 20.5334 15.8668 19.3334 17.3334 19.3334C18.8 19.3334 20 20.5334 20 22V28.6666H64V22C64 20.5334 65.2 19.3334 66.6666 19.3334C68.1333 19.3334 69.3332 20.5334 69.3332 22V32.6666H69.3334Z" fill="#EB16EF"></path> </g> <defs> <filter id="filter0_d" x="0" y="0" width="84" height="56" filterUnits="userSpaceOnUse" color-interpolation-filters="sRGB"> <feFlood flood-opacity="0" result="BackgroundImageFix"></feFlood> <feColorMatrix in="SourceAlpha" type="matrix" values="0 0 0 0 0 0 0 0 0 0 0 0 0 0 0 0 0 0 127 0"></feColorMatrix> <feOffset dy="2"></feOffset> <feGaussianBlur stdDeviation="6"></feGaussianBlur> <feColorMatrix type="matrix" values="0 0 0 0 0.921569 0 0 0 0 0.0862745 0 0 0 0 0.937255 0 0 0 1 0"></feColorMatrix> <feBlend mode="normal" in2="BackgroundImageFix" result="effect1_dropShadow"></feBlend> <feBlend mode="normal" in="SourceGraphic" in2="effect1_dropShadow" result="shape"></feBlend> </filter> </defs> </svg> 