<?xml version="1.0" standalone="no"?>
<!DOCTYPE svg PUBLIC "-//W3C//DTD SVG 20010904//EN"
 "http://www.w3.org/TR/2001/REC-SVG-20010904/DTD/svg10.dtd">
<svg version="1.0" xmlns="http://www.w3.org/2000/svg"
 width="70.000000pt" height="70.000000pt" viewBox="0 0 70.000000 70.000000"
 preserveAspectRatio="xMidYMid meet">
<metadata>
Created by potrace 1.14, written by Peter Selinger 2001-2017
</metadata>
<g transform="translate(0.000000,70.000000) scale(0.100000,-0.100000)"
fill="#000000" stroke="none">
<path d="M0 350 l0 -350 350 0 350 0 0 350 0 350 -350 0 -350 0 0 -350z m275
75 c38 -118 71 -215 75 -215 3 0 18 37 32 83 15 45 46 142 69 215 l42 132 68
0 68 0 -89 -257 c-49 -142 -94 -273 -100 -290 l-12 -33 -78 0 -78 0 -15 43
c-8 23 -53 153 -100 290 l-86 247 68 0 67 0 69 -215z"/>
</g>
</svg>
